<svg width="50" height="50" viewBox="0 0 50 50" fill="none" xmlns="http://www.w3.org/2000/svg">
<path d="M7.2915 15.625C7.2915 14.5199 7.73049 13.4601 8.51189 12.6787C9.29329 11.8973 10.3531 11.4583 11.4582 11.4583H19.7915L23.5415 15.625H38.5415C39.6466 15.625 40.7064 16.064 41.4878 16.8454C42.2692 17.6268 42.7082 18.6866 42.7082 19.7917V34.375C42.7082 35.4801 42.2692 36.5399 41.4878 37.3213C40.7064 38.1027 39.6466 38.5417 38.5415 38.5417H11.4582C10.3531 38.5417 9.29329 38.1027 8.51189 37.3213C7.73049 36.5399 7.2915 35.4801 7.2915 34.375V15.625Z" stroke="#D9D9D9" stroke-width="1.8" stroke-linejoin="round"/>
<path d="M20.8332 21.25H29.5832L33.7498 25.4167V34.375C33.7498 35.1485 33.4425 35.8904 32.8956 36.4374C32.3486 36.9844 31.6067 37.2917 30.8332 37.2917H20.8332C20.0596 37.2917 19.3178 36.9844 18.7708 36.4374C18.2238 35.8904 17.9165 35.1485 17.9165 34.375V24.1667C17.9165 23.7836 17.9919 23.4044 18.1385 23.0505C18.2851 22.6966 18.4999 22.3751 18.7708 22.1043C19.0416 21.8334 19.3631 21.6186 19.717 21.472C20.0709 21.3254 20.4501 21.25 20.8332 21.25Z" stroke="#D9D9D9" stroke-width="1.6" stroke-linejoin="round"/>
<path d="M29.5835 21.25V25.4167H33.7502" stroke="#D9D9D9" stroke-width="1.6" stroke-linejoin="round"/>
</svg>
