<svg width="50" height="50" viewBox="0 0 50 50" fill="none" xmlns="http://www.w3.org/2000/svg">
<path d="M15.625 13.5417H34.375C35.4801 13.5417 36.5399 13.9806 37.3213 14.762C38.1027 15.5434 38.5417 16.6033 38.5417 17.7083V36.4583" stroke="#D9D9D9" stroke-width="1.8" stroke-linecap="round"/>
<path d="M13.5417 17.7083H32.2917C33.3967 17.7083 34.4565 18.1473 35.2379 18.9287C36.0193 19.7101 36.4583 20.7699 36.4583 21.875V38.5417C36.4583 39.6467 36.0193 40.7066 35.2379 41.488C34.4565 42.2694 33.3967 42.7083 32.2917 42.7083H13.5417C12.4366 42.7083 11.3768 42.2694 10.5954 41.488C9.81399 40.7066 9.375 39.6467 9.375 38.5417V21.875C9.375 20.7699 9.81399 19.7101 10.5954 18.9287C11.3768 18.1473 12.4366 17.7083 13.5417 17.7083Z" stroke="#D9D9D9" stroke-width="1.8" stroke-linejoin="round"/>
<path d="M16.6665 25H30.8332" stroke="#D9D9D9" stroke-width="1.8" stroke-linecap="round"/>
<path d="M16.6665 32.2917H27.4998" stroke="#D9D9D9" stroke-width="1.8" stroke-linecap="round"/>
<path d="M38.5417 10.8333L39.1667 13.125L41.4583 13.75L39.1667 14.375L38.5417 16.6667L37.9167 14.375L35.625 13.75L37.9167 13.125L38.5417 10.8333Z" fill="#D9D9D9"/>
</svg>
