<svg width="50" height="50" viewBox="0 0 50 50" fill="none" xmlns="http://www.w3.org/2000/svg">
<path d="M10.4165 14.5833H39.5832" stroke="#D9D9D9" stroke-width="1.8" stroke-linecap="round"/>
<path d="M18.7498 19.1667C21.2811 19.1667 23.3332 17.1146 23.3332 14.5833C23.3332 12.052 21.2811 10 18.7498 10C16.2185 10 14.1665 12.052 14.1665 14.5833C14.1665 17.1146 16.2185 19.1667 18.7498 19.1667Z" stroke="#D9D9D9" stroke-width="1.8"/>
<path d="M10.4165 25H39.5832" stroke="#D9D9D9" stroke-width="1.8" stroke-linecap="round"/>
<path d="M29.1668 29.5833C31.6981 29.5833 33.7502 27.5313 33.7502 25C33.7502 22.4687 31.6981 20.4167 29.1668 20.4167C26.6355 20.4167 24.5835 22.4687 24.5835 25C24.5835 27.5313 26.6355 29.5833 29.1668 29.5833Z" stroke="#D9D9D9" stroke-width="1.8"/>
<path d="M10.4165 35.4167H39.5832" stroke="#D9D9D9" stroke-width="1.8" stroke-linecap="round"/>
<path d="M21.8748 40C24.4061 40 26.4582 37.948 26.4582 35.4167C26.4582 32.8854 24.4061 30.8333 21.8748 30.8333C19.3435 30.8333 17.2915 32.8854 17.2915 35.4167C17.2915 37.948 19.3435 40 21.8748 40Z" stroke="#D9D9D9" stroke-width="1.8"/>
</svg>
