<svg width="50" height="50" viewBox="0 0 50 50" fill="none" xmlns="http://www.w3.org/2000/svg">
<path d="M18.1248 8.33334H11.0415C8.97044 8.33334 7.2915 10.0123 7.2915 12.0833V19.1667C7.2915 21.2377 8.97044 22.9167 11.0415 22.9167H18.1248C20.1959 22.9167 21.8748 21.2377 21.8748 19.1667V12.0833C21.8748 10.0123 20.1959 8.33334 18.1248 8.33334Z" stroke="#D9D9D9" stroke-width="1.8"/>
<path d="M38.9583 8.33334H31.875C29.8039 8.33334 28.125 10.0123 28.125 12.0833V19.1667C28.125 21.2377 29.8039 22.9167 31.875 22.9167H38.9583C41.0294 22.9167 42.7083 21.2377 42.7083 19.1667V12.0833C42.7083 10.0123 41.0294 8.33334 38.9583 8.33334Z" stroke="#D9D9D9" stroke-width="1.8"/>
<path d="M18.1248 27.0833H11.0415C8.97044 27.0833 7.2915 28.7623 7.2915 30.8333V37.9167C7.2915 39.9877 8.97044 41.6667 11.0415 41.6667H18.1248C20.1959 41.6667 21.8748 39.9877 21.8748 37.9167V30.8333C21.8748 28.7623 20.1959 27.0833 18.1248 27.0833Z" stroke="#D9D9D9" stroke-width="1.8"/>
<path d="M38.9583 27.0833H31.875C29.8039 27.0833 28.125 28.7623 28.125 30.8333V37.9167C28.125 39.9877 29.8039 41.6667 31.875 41.6667H38.9583C41.0294 41.6667 42.7083 39.9877 42.7083 37.9167V30.8333C42.7083 28.7623 41.0294 27.0833 38.9583 27.0833Z" stroke="#D9D9D9" stroke-width="1.8"/>
<path d="M32.2915 34.375L36.0415 38.125L42.7082 30.625" stroke="#D9D9D9" stroke-width="1.8" stroke-linecap="round" stroke-linejoin="round"/>
</svg>
